# xmcd
#
# Track frame offsets:
#   150
#   12837
#   24620
#   38819
#   51603
#   62086
#   75379
#   85053
#   97584
#   107678
#   117614
#   128351
#   139208
#   149840
#   162296
#   173065
#   185514
#   198002
#   208480
#   219985
#   230690
#   240220
#   253830
#   267398
#   277827
#   288728
#
# Disc length: 4011 seconds
#
# Revision: 0
# Processed by: cddbd v1.4PL0 Copyright (c) Steve Scherf et al.
# Submitted via: uFREEDB 1.6.0
#
DISCID=790fa91a
DTITLE=Martin, Dean - Tracks 1957-58
DYEAR=1900
DGENRE=Vocal
TTITLE0=Money Is A Problem
TTITLE1=You I Love
TTITLE2=Ten Thousand Bedrooms
TTITLE3=Only Trust Your Heart
TTITLE4=Beau James
TTITLE5=Promise Her Anything
TTITLE6=The Tricche Tracche
TTITLE7=Write To Me From Naples
TTITLE8=Good Mornin' Life
TTITLE9=Makin' Love The Ukulele Style
TTITLE10=Cheatin' On Me
TTITLE11=Return To Me
TTITLE12=Buona Sera
TTITLE13=Forgetting You
TTITLE14=Tu Sei Bella, Signorina
TTITLE15=Angel Baby
TTITLE16=It's 1200 Miles From Palm Springs To Texas
TTITLE17=You Were Made For Love
TTITLE18=Once Upon A Time (It Happened)
TTITLE19=Outa My Mind
TTITLE20=The Magician
TTITLE21=Volare
TTITLE22=Rio Bravo
TTITLE23=It Takes So Long To Say Goodbye
TTITLE24=On An Evening In Roma
TTITLE25=My Rifle, My Pony And Me
EXTD=
EXTT0=
EXTT1=
EXTT2=
EXTT3=
EXTT4=
EXTT5=
EXTT6=
EXTT7=
EXTT8=
EXTT9=
EXTT10=
EXTT11=
EXTT12=
EXTT13=
EXTT14=
EXTT15=
EXTT16=
EXTT17=
EXTT18=
EXTT19=
EXTT20=
EXTT21=
EXTT22=
EXTT23=
EXTT24=
EXTT25=
PLAYORDER=
